<?xml version="1.0" encoding="utf-8"?>
<!-- Generator: Adobe Illustrator 24.2.3, SVG Export Plug-In . SVG Version: 6.00 Build 0)  -->
<svg version="1.1" id="_x31_6" xmlns="http://www.w3.org/2000/svg" xmlns:xlink="http://www.w3.org/1999/xlink" x="0px" y="0px"
	 viewBox="0 0 128 128" style="enable-background:new 0 0 128 128;" xml:space="preserve">
<style type="text/css">
	.st0{fill:#E87B38;}
	.st1{opacity:0.1;}
	.st2{opacity:0.5;}
	.st3{fill:#FFFFFF;}
	.st4{opacity:0.3;}
	.st5{opacity:0.7;}
	.st6{fill:#32B4B7;}
	.st7{fill:#7CA1B1;}
	.st8{opacity:0.35;}
	.st9{fill:#FDD602;}
</style>
<g>
	<g>
		<rect x="99" y="66" class="st0" width="15" height="6"/>
	</g>
	<g>
		<path d="M114,73H99c-0.552,0-1-0.447-1-1v-6c0-0.553,0.448-1,1-1h15c0.552,0,1,0.447,1,1v6C115,72.553,114.552,73,114,73z M100,71
			h13v-4h-13V71z"/>
	</g>
	<g>
		<polygon class="st0" points="106,91 101,91 109,72 114,72 		"/>
	</g>
	<g>
		<path d="M106,92h-5c-0.335,0-0.648-0.168-0.833-0.447c-0.186-0.278-0.219-0.632-0.089-0.94l8-19C108.234,71.241,108.598,71,109,71
			h5c0.335,0,0.648,0.168,0.833,0.447c0.186,0.278,0.219,0.632,0.089,0.94l-8,19C106.766,91.759,106.402,92,106,92z M102.506,90
			h2.83l7.158-17h-2.83L102.506,90z"/>
	</g>
	<g>
		<g>
			<polygon class="st0" points="12,66.001 12.72,72.001 13.44,78.001 14.16,84.001 15,91.001 99,91.001 99.84,84.001 100.56,78.001 
				101.28,72.001 102,66.001 			"/>
		</g>
		<g class="st1">
			<polygon points="12,66.001 12.72,72.001 13.44,78.001 14.16,84.001 15,91.001 99,91.001 99.84,84.001 100.56,78.001 
				101.28,72.001 102,66.001 			"/>
		</g>
		<g>
			<g>
				<path class="st0" d="M98,62H15c-6.67,0-6.67-36,0-36h83C104.67,26,104.67,62,98,62z"/>
			</g>
			<g class="st2">
				<path class="st3" d="M98,62H15c-6.67,0-6.67-36,0-36h83C104.67,26,104.67,62,98,62z"/>
			</g>
			<g>
				<path class="st0" d="M20,62h-5c-6.67,0-6.67-36,0-36h5C13.33,26,13.33,62,20,62z"/>
			</g>
			<g>
				<path class="st0" d="M45,62.001h-5c-2.568-12.427-2.766-24.46,0-36h5C42.432,38.428,42.234,50.461,45,62.001z"/>
			</g>
			<g class="st4">
				<path d="M56,62L56,62l-41,0c-3.58,0-5.24-10.38-4.97-20c0.23,8.29,1.88,16,4.97,16h37C54.209,58,56,59.791,56,62z"/>
			</g>
			<g>
				<path class="st0" d="M68,62.001h5c2.568-12.427,2.766-24.46,0-36h-5C70.568,38.428,70.766,50.461,68,62.001z"/>
			</g>
			<g>
				<path class="st0" d="M98,62h-5c6.67,0,6.67-36,0-36h5C104.67,26,104.67,62,98,62z"/>
			</g>
			<g class="st5">
				<path class="st3" d="M99.5,61.32C102.33,51.58,101.16,30,96,30H68c-2.209,0-4-1.791-4-4v0h34C104.13,26,104.63,56.36,99.5,61.32
					z"/>
			</g>
			<g>
				<path d="M98,63H15c-5.713,0-6.002-15.827-6.002-19c0-4.794,0.455-9.274,1.28-12.615C11.324,27.148,12.913,25,15,25h66
					c0.552,0,1,0.447,1,1s-0.448,1-1,1H15c-1.933,0-4.002,6.831-4.002,17S13.067,61,15,61h83c0.107,0,0.432,0,0.89-0.484
					c2.208-2.339,3.527-11.343,3.002-20.498c-0.031-0.552,0.39-1.024,0.941-1.056c0.551-0.017,1.024,0.39,1.056,0.94
					c0.489,8.542-0.571,18.837-3.545,21.986C99.647,62.626,98.859,63,98,63z"/>
			</g>
			<g>
				<path d="M101.919,33.37c-0.46,0-0.875-0.32-0.977-0.789C100.052,28.466,98.839,27,98,27H87.73c-0.552,0-1-0.447-1-1s0.448-1,1-1
					H98c2.222,0,3.87,2.408,4.897,7.159c0.117,0.539-0.226,1.071-0.766,1.188C102.06,33.363,101.989,33.37,101.919,33.37z"/>
			</g>
			<g>
				<path d="M22,63h-2c-5.713,0-6.002-15.827-6.002-19c0-4.794,0.455-9.274,1.28-12.615C16.324,27.148,17.913,25,20,25h2
					c0.552,0,1,0.447,1,1s-0.448,1-1,1h-2c-0.764,0-1.895,1.278-2.781,4.865c-0.788,3.188-1.221,7.498-1.221,12.135
					c0,10.169,2.069,17,4.002,17h2c0.552,0,1,0.447,1,1S22.552,63,22,63z"/>
			</g>
			<g>
				<path d="M93,63h-2c-0.552,0-1-0.447-1-1s0.448-1,1-1h2c0.764,0,1.895-1.278,2.781-4.865c0.788-3.188,1.221-7.498,1.221-12.135
					c0-10.169-2.069-17-4.002-17h-2c-0.552,0-1-0.447-1-1s0.448-1,1-1h2c5.713,0,6.002,15.827,6.002,19
					c0,4.794-0.455,9.274-1.28,12.615C96.676,60.852,95.087,63,93,63z"/>
			</g>
			<g>
				<path d="M45,63h-5c-0.475,0-0.884-0.333-0.979-0.798c-1.445-7.01-2.118-13.812-2-20.221c0.011-0.552,0.502-1.008,1.019-0.981
					c0.552,0.011,0.991,0.466,0.981,1.019C38.909,48.036,39.514,54.418,40.818,61h2.926c-1.429-6.469-1.981-13.3-1.643-20.328
					c0.03-0.834,0.091-1.669,0.162-2.516c0.268-3.602,0.777-7.352,1.517-11.156h-2.986c-0.611,2.688-1.071,5.458-1.369,8.246
					c-0.059,0.549-0.549,0.941-1.101,0.888c-0.549-0.059-0.947-0.552-0.888-1.101c0.335-3.139,0.871-6.256,1.591-9.266
					C39.135,25.317,39.538,25,40,25h5c0.301,0,0.585,0.136,0.775,0.368c0.19,0.233,0.265,0.539,0.204,0.834
					c-0.853,4.133-1.432,8.208-1.723,12.112c-0.069,0.823-0.128,1.627-0.157,2.441c-0.352,7.3,0.278,14.364,1.873,21.011
					c0.072,0.298,0.003,0.612-0.187,0.853C45.596,62.859,45.306,63,45,63z"/>
			</g>
			<g>
				<path d="M73,63h-5c-0.306,0-0.595-0.141-0.785-0.381c-0.189-0.24-0.259-0.554-0.188-0.852c0.884-3.698,1.478-7.541,1.766-11.422
					c0.041-0.551,0.529-0.966,1.071-0.923c0.551,0.041,0.964,0.521,0.923,1.071C70.523,54.052,70.009,57.58,69.255,61h2.926
					c0.775-3.913,1.303-7.723,1.571-11.334c0.103-1.309,0.176-2.691,0.218-4.115c0.182-6.376-0.412-12.613-1.764-18.551h-2.986
					c1.084,5.562,1.676,11.018,1.759,16.234c0.009,0.552-0.432,1.007-0.984,1.016c-0.53,0.01-1.007-0.432-1.016-0.984
					c-0.087-5.467-0.746-11.207-1.959-17.062c-0.061-0.295,0.014-0.602,0.204-0.834C67.415,25.136,67.699,25,68,25h5
					c0.462,0,0.865,0.317,0.973,0.767c1.52,6.339,2.191,13.015,1.997,19.842c-0.042,1.457-0.117,2.873-0.223,4.211
					c-0.292,3.938-0.887,8.104-1.768,12.382C73.884,62.666,73.475,63,73,63z"/>
			</g>
		</g>
		<g>
			<rect x="12" y="61" class="st6" width="90" height="5.001"/>
		</g>
		<g>
			<path d="M102,67.001H12c-0.552,0-1-0.447-1-1V61c0-0.553,0.448-1,1-1h90c0.552,0,1,0.447,1,1v5.001
				C103,66.554,102.552,67.001,102,67.001z M13,65.001h88V62H13V65.001z"/>
		</g>
		<g>
			<g>
				<path d="M101.28,73.001H12.72c-0.506,0-0.933-0.378-0.993-0.881l-0.72-6c-0.034-0.284,0.055-0.568,0.245-0.783
					c0.19-0.214,0.462-0.336,0.748-0.336h90c0.286,0,0.558,0.122,0.748,0.336s0.279,0.499,0.245,0.783l-0.72,6
					C102.213,72.623,101.787,73.001,101.28,73.001z M13.607,71.001h86.786l0.48-4H13.127L13.607,71.001z"/>
			</g>
			<g>
				<path d="M100.56,79.001H13.44c-0.506,0-0.933-0.378-0.993-0.881l-0.72-6c-0.034-0.284,0.055-0.569,0.245-0.783
					s0.462-0.336,0.748-0.336h88.56c0.286,0,0.558,0.122,0.748,0.336c0.19,0.215,0.279,0.499,0.245,0.783l-0.72,6
					C101.493,78.623,101.066,79.001,100.56,79.001z M14.327,77.001h85.346l0.48-4H13.847L14.327,77.001z"/>
			</g>
			<g>
				<path d="M99.84,85.001H14.16c-0.506,0-0.933-0.378-0.993-0.881l-0.72-6c-0.034-0.284,0.055-0.568,0.245-0.783
					c0.19-0.214,0.462-0.336,0.748-0.336h87.12c0.286,0,0.558,0.122,0.748,0.336c0.19,0.215,0.279,0.499,0.245,0.783l-0.72,6
					C100.772,84.623,100.346,85.001,99.84,85.001z M15.047,83.001h83.905l0.48-4H14.567L15.047,83.001z"/>
			</g>
			<g>
				<path d="M99,92.001H15c-0.506,0-0.933-0.378-0.993-0.881l-0.84-7c-0.034-0.284,0.055-0.569,0.245-0.783s0.462-0.336,0.748-0.336
					h85.68c0.286,0,0.558,0.122,0.748,0.336s0.279,0.499,0.245,0.783l-0.84,7C99.933,91.623,99.506,92.001,99,92.001z
					 M15.887,90.001h82.226l0.6-5H15.287L15.887,90.001z"/>
			</g>
		</g>
		<g>
			<path d="M99,92.001H15c-0.506,0-0.933-0.378-0.993-0.881l-3-25c-0.034-0.284,0.055-0.568,0.245-0.783
				c0.19-0.214,0.462-0.336,0.748-0.336h90c0.286,0,0.558,0.122,0.748,0.336s0.279,0.499,0.245,0.783l-3,25
				C99.933,91.623,99.506,92.001,99,92.001z M15.887,90.001h82.226l2.76-23H13.127L15.887,90.001z"/>
		</g>
		<g>
			<rect x="15" y="91.001" class="st6" width="84" height="4"/>
		</g>
		<g>
			<path d="M99,96.001H15c-0.552,0-1-0.447-1-1v-4c0-0.553,0.448-1,1-1h84c0.552,0,1,0.447,1,1v4
				C100,95.554,99.552,96.001,99,96.001z M16,94.001h82v-2H16V94.001z"/>
		</g>
		<g>
			<g>
				<polygon class="st7" points="20,91.001 15,91.001 14.16,84.001 13.44,78.001 12.72,72.001 12,66.001 17,66.001 17.72,72.001 
					18.44,78.001 19.16,84.001 				"/>
			</g>
			<g>
				<polygon class="st7" points="102,66.001 101.28,72.001 100.56,78.001 99.84,84.001 99,91.001 94,91.001 94.84,84.001 
					95.56,78.001 96.28,72.001 97,66.001 				"/>
			</g>
			<g>
				<polygon class="st7" points="66.667,91.001 71.667,91.001 74.667,66.001 69.667,66.001 				"/>
			</g>
			<g>
				<polygon class="st7" points="47.333,91.001 42.333,91.001 39.333,66.001 44.333,66.001 				"/>
			</g>
		</g>
		<g>
			<g>
				<path d="M20,92.001h-5c-0.506,0-0.933-0.378-0.993-0.881l-3-25c-0.034-0.284,0.055-0.569,0.245-0.783s0.462-0.336,0.748-0.336h5
					c0.506,0,0.933,0.378,0.993,0.881l3,25c0.034,0.284-0.055,0.569-0.245,0.783S20.286,92.001,20,92.001z M15.887,90.001h2.986
					l-2.76-23h-2.985L15.887,90.001z"/>
			</g>
			<g>
				<path d="M99,92.001h-5c-0.286,0-0.558-0.122-0.748-0.336s-0.279-0.499-0.245-0.783l3-25c0.06-0.503,0.486-0.881,0.993-0.881h5
					c0.286,0,0.558,0.122,0.748,0.336s0.279,0.499,0.245,0.783l-3,25C99.933,91.623,99.506,92.001,99,92.001z M95.127,90.001h2.986
					l2.76-23h-2.986L95.127,90.001z"/>
			</g>
			<g>
				<path d="M71.667,92.001h-5c-0.286,0-0.558-0.122-0.748-0.336s-0.279-0.499-0.245-0.783l3-25c0.06-0.503,0.486-0.881,0.993-0.881
					h5c0.286,0,0.558,0.122,0.748,0.336s0.279,0.499,0.245,0.783l-3,25C72.599,91.623,72.173,92.001,71.667,92.001z M67.793,90.001
					h2.986l2.76-23h-2.986L67.793,90.001z"/>
			</g>
			<g>
				<path d="M47.333,92.001h-5c-0.506,0-0.933-0.378-0.993-0.881l-3-25c-0.034-0.284,0.055-0.569,0.245-0.783
					s0.462-0.336,0.748-0.336h5c0.506,0,0.933,0.378,0.993,0.881l3,25c0.034,0.284-0.055,0.569-0.245,0.783
					S47.62,92.001,47.333,92.001z M43.221,90.001h2.986l-2.76-23H40.46L43.221,90.001z"/>
			</g>
		</g>
	</g>
	<g>
		<g>
			<g>
				<path class="st0" d="M46.794,101.903c-8.062,17.99-35.031,6.443-27.58-11.805C27.284,72.111,54.238,83.652,46.794,101.903z"/>
			</g>
			<g class="st8">
				<path d="M46.79,101.901c-0.821,1.927-2.007,3.617-3.51,5.024L17.999,96.105c-0.044-4.092,1.718-8.251,4.731-11.028
					l25.272,10.817C48.013,97.95,47.622,99.979,46.79,101.901z"/>
			</g>
			<g class="st4">
				<path d="M46.39,102.76c-10.626,19.395-38.572,0.776-24.79-16.5C13.656,101.728,35.219,116.061,46.39,102.76z"/>
			</g>
			<g class="st2">
				<path class="st3" d="M47.78,98.56c-0.209,1.222-0.586,2.484-1.13,3.65c3.913-17.219-21.123-25.556-28.3-9.42
					C22.765,73.999,50.809,79.514,47.78,98.56z"/>
			</g>
			<g>
				<path d="M32.952,111.999c-20.214-0.294-21.319-30.192-1.149-31.948C53.594,78.874,54.795,111.583,32.952,111.999z
					 M33.052,82.003c-19.125,0.366-18.056,28.994,1.009,27.953C51.705,108.411,50.73,82.257,33.052,82.003z"/>
			</g>
			<g>
				<path d="M43.28,107.926c-0.491,0.065-25.223-10.81-25.676-10.902c-2.215-2.547,2.158-12.717,5.518-12.865
					c0.001,0,25.273,10.817,25.273,10.817C50.469,98.316,46.621,106.218,43.28,107.926z M19.012,95.45l24.047,10.293
					c2.357-2.403,3.828-5.821,3.931-9.195L22.95,86.26C20.573,88.676,19.132,92.067,19.012,95.45z"/>
			</g>
			<g>
				<path class="st7" d="M45.99,88.52c-1.675,3.908-7.754,18.14-9.43,22.04c-2.147,0.535-4.424,0.595-6.59,0.13
					c1.816-4.236,9.744-22.756,11.57-27.02C43.391,84.933,44.891,86.598,45.99,88.52z"/>
			</g>
			<g class="st4">
				<path d="M37.77,107.74l-1.21,2.82c-2.15,0.543-4.419,0.588-6.59,0.13l1.35-3.15C33.438,108.082,35.645,108.151,37.77,107.74z"/>
			</g>
			<g class="st2">
				<path class="st3" d="M45.99,88.52l-1.16,2.71c-1.135-1.868-2.665-3.495-4.51-4.71l1.22-2.85
					C43.391,84.933,44.891,86.598,45.99,88.52z"/>
			</g>
			<g>
				<path d="M32.952,111.999c-1.255-0.155-4.355,0.301-3.898-1.699c0,0,11.569-27.028,11.569-27.028
					c1.256-2.371,6.7,4.159,6.289,5.639c0,0-9.436,22.046-9.436,22.046C36.494,112.167,34.426,111.822,32.952,111.999z
					 M31.396,109.912c1.442,0.166,3.041,0.092,4.44-0.208l9.037-21.114c-0.763-1.238-1.8-2.426-2.915-3.356L31.396,109.912z"/>
			</g>
			<g>
				<path class="st7" d="M36.02,81.31c-1.925,4.511-9.647,22.532-11.56,27.01c-1.841-1.248-3.351-2.932-4.45-4.85
					c1.969-4.618,7.452-17.385,9.43-22.03C31.586,80.913,33.84,80.847,36.02,81.31z"/>
			</g>
			<g class="st4">
				<path d="M25.91,104.93l-1.45,3.39c-1.841-1.248-3.356-2.928-4.45-4.85l1.59-3.72C22.631,101.768,24.094,103.535,25.91,104.93z"
					/>
			</g>
			<g class="st2">
				<path class="st3" d="M36.02,81.31l-1.26,2.95c-2.215-0.431-4.475-0.327-6.63,0.25l1.31-3.07
					C31.586,80.913,33.84,80.847,36.02,81.31z"/>
			</g>
			<g>
				<path d="M24.462,109.324c-2.144-0.976-5.179-3.816-5.37-6.246c0.001,0,9.428-22.028,9.428-22.028
					c1.306-1.412,7.037-1.517,8.403-0.172c0.125,0.26,0.132,0.562,0.019,0.828l-11.561,27.011
					C25.23,109.081,24.854,109.327,24.462,109.324z M21.13,103.4c0.757,1.238,1.799,2.431,2.913,3.361l10.56-24.673
					c-1.45-0.166-3.041-0.091-4.442,0.213L21.13,103.4z"/>
			</g>
			<g>
				<path class="st9" d="M36.186,97.363c-1.707,4.155-8.193,1.379-6.364-2.724C31.529,90.484,38.014,93.26,36.186,97.363z"/>
			</g>
			<g>
				<path d="M33.003,100.465c-3.12,0.057-5.396-3.363-4.101-6.22c2.201-5.353,10.555-1.776,8.203,3.512l0,0l0,0l0,0
					C36.436,99.38,34.749,100.479,33.003,100.465z M33.008,93.539c-5.435,0.746-0.585,8.137,2.259,3.431l0,0
					C35.982,95.397,34.725,93.505,33.008,93.539z"/>
			</g>
		</g>
	</g>
	<g>
		<rect x="99" y="91" class="st6" width="16" height="4"/>
	</g>
	<g>
		<path d="M115,96H99c-0.552,0-1-0.447-1-1v-4c0-0.553,0.448-1,1-1h16c0.552,0,1,0.447,1,1v4C116,95.553,115.552,96,115,96z M100,94
			h14v-2h-14V94z"/>
	</g>
	<g>
		<g>
			<path class="st0" d="M93.658,87.945c10.46,16.585-14.717,32.607-25.31,16.107C57.895,87.462,83.059,71.45,93.658,87.945z"/>
		</g>
		<g class="st8">
			<path d="M93.655,87.947c1.127,1.765,1.853,3.698,2.167,5.733l-23.2,14.765c-3.402-2.273-5.842-6.074-6.434-10.129l23.192-14.76
				C91.083,84.708,92.537,86.176,93.655,87.947z"/>
		</g>
		<g class="st4">
			<path d="M94.42,102.71c-10.285,19.494-38.764,0.621-24.83-16.44C61.441,101.479,83.598,116.163,94.42,102.71z"/>
		</g>
		<g class="st2">
			<path class="st3" d="M95.93,97.44c-0.282,3.024-1.52,5.976-3.52,8.3c8.128-15.186-13.923-29.873-24.8-16.5
				C74.432,74.619,97.993,81.44,95.93,97.44z"/>
		</g>
		<g>
			<path d="M81.208,111.992C69.23,112.56,60.786,98.175,67.159,87.99c5.458-10.233,21.423-10.586,27.339-0.58l0,0
				C101.353,97.438,93.338,112.247,81.208,111.992z M80.965,109.989c10.71,0.406,17.896-12.662,11.846-21.505l0,0
				C74.078,66.095,52.074,106.191,80.965,109.989z"/>
		</g>
		<g>
			<path d="M72.622,109.445c-3.78-1.901-8.249-7.756-6.973-11.972c0.001,0,23.193-14.76,23.193-14.76
				c3.938,0.309,8.89,8.143,7.518,11.811C95.83,94.684,73.225,109.591,72.622,109.445z M67.288,98.801
				c0.654,3.325,2.637,6.43,5.366,8.438l22.068-14.043c-0.343-1.663-0.962-3.229-1.91-4.712l0,0
				c-0.957-1.502-2.068-2.685-3.462-3.723L67.288,98.801z"/>
		</g>
		<g>
			<path class="st7" d="M95.03,101.28c-0.59,1.618-1.484,3.135-2.61,4.44c-0.303,0.378-0.639,0.743-1,1.07
				C90.959,106.067,75.551,81.838,75.64,82v-0.01c2.061-0.814,4.313-1.102,6.52-0.94C84.649,84.976,92.463,97.245,95.03,101.28z"/>
		</g>
		<g class="st2">
			<path class="st3" d="M82.16,81.05l2.61,4.11c-2.429-1.013-5.124-1.389-7.76-1.02L75.64,82v-0.01
				C77.708,81.184,79.948,80.882,82.16,81.05z"/>
		</g>
		<g>
			<path class="st3" d="M95.03,101.28c-0.59,1.618-1.484,3.135-2.61,4.44c0.936-1.892,1.494-3.982,1.56-6.09L95.03,101.28z"/>
		</g>
		<g>
			<path d="M91.424,107.792c-0.339,0.001-0.662-0.176-0.844-0.463L74.795,82.526c-0.16-0.251-0.199-0.561-0.108-0.844
				c1.8-1.654,6.132-2.291,8.312-1.167c0,0.001,12.876,20.231,12.876,20.231C96.004,103.239,93.578,106.612,91.424,107.792z
				 M77.168,82.53l14.413,22.646c0.951-1.097,1.791-2.456,2.334-3.783L81.583,82.018C80.14,81.949,78.563,82.134,77.168,82.53z"/>
		</g>
		<g>
			<path class="st7" d="M86.36,110c-2.056,0.832-4.314,1.109-6.52,0.94c-2.486-3.904-10.297-16.196-12.86-20.21
				c0.585-1.641,1.486-3.132,2.61-4.46c-0.01,0.01-0.01,0.03-0.02,0.04c0.313-0.376,0.636-0.768,1.01-1.09
				C71.046,85.95,86.442,110.15,86.36,110z"/>
		</g>
		<g>
			<path class="st3" d="M69.32,86.6c0.09-0.11,0.18-0.22,0.27-0.33c-0.945,1.891-1.502,3.977-1.57,6.09l-1.04-1.63
				C67.52,89.225,68.314,87.843,69.32,86.6z"/>
		</g>
		<g class="st4">
			<path d="M86.36,110c-2.065,0.816-4.321,1.123-6.53,0.93l-2.59-4.08c2.432,0.995,5.116,1.383,7.75,1.01L86.36,110z"/>
		</g>
		<g>
			<path d="M81.208,111.992c-0.708-0.067-1.738,0.191-2.211-0.515c0,0-12.865-20.214-12.865-20.214
				c-0.258-2.496,2.179-5.033,3.805-6.81c1.401-2.44,16.531,24.938,17.264,25.013C87.767,112.033,82.93,111.699,81.208,111.992z
				 M80.965,109.989c1.265,0.02,2.648-0.18,3.865-0.52l-14.41-22.642c-0.955,1.105-1.791,2.458-2.331,3.788l12.322,19.361
				C80.597,109.986,80.779,109.988,80.965,109.989z"/>
		</g>
		<g>
			<path class="st9" d="M83.924,94.141c2.467,3.754-3.485,7.542-5.841,3.717C75.617,94.104,81.569,90.316,83.924,94.141z"/>
		</g>
		<g>
			<path d="M81.012,100.462c-9.227-0.944-1.998-14.125,3.756-6.858l0,0C86.699,96.414,84.407,100.572,81.012,100.462z M81,93.537
				c-2.856-0.07-3.34,4.318-0.53,4.865c2.056,0.537,3.816-1.974,2.611-3.725l0,0C82.637,93.969,81.833,93.534,81,93.537z"/>
		</g>
	</g>
	<g>
		<g>
			<path d="M110.001,43.989c-0.306,0-0.607-0.14-0.804-0.403c-0.329-0.443-0.237-1.07,0.206-1.399l2.389-1.775
				c0.443-0.33,1.07-0.236,1.399,0.206c0.329,0.443,0.237,1.07-0.206,1.399l-2.389,1.775
				C110.417,43.925,110.208,43.989,110.001,43.989z"/>
		</g>
		<g>
			<path d="M115.631,39.806c-0.306,0-0.607-0.14-0.804-0.403c-0.329-0.443-0.237-1.07,0.206-1.399l2.381-1.77
				c0.443-0.33,1.069-0.237,1.399,0.206c0.329,0.443,0.237,1.07-0.206,1.399l-2.381,1.77
				C116.048,39.741,115.838,39.806,115.631,39.806z"/>
		</g>
		<g>
			<path d="M112.806,39.389c-0.306,0-0.607-0.14-0.804-0.403l-1.775-2.389c-0.329-0.443-0.237-1.07,0.207-1.399
				c0.442-0.33,1.069-0.236,1.399,0.206l1.775,2.389c0.329,0.443,0.237,1.07-0.207,1.399
				C113.223,39.324,113.013,39.389,112.806,39.389z"/>
		</g>
		<g>
			<path d="M116.984,45.012c-0.306,0-0.607-0.14-0.804-0.403l-1.77-2.381c-0.329-0.443-0.237-1.07,0.206-1.399
				c0.443-0.33,1.07-0.236,1.399,0.206l1.77,2.381c0.329,0.443,0.237,1.07-0.206,1.399
				C117.401,44.947,117.191,45.012,116.984,45.012z"/>
		</g>
	</g>
	<g>
		<g>
			<path d="M34.993,19.849c-0.216,0-0.434-0.069-0.617-0.214c-0.435-0.341-0.51-0.97-0.168-1.404l1.839-2.34
				c0.341-0.435,0.97-0.51,1.404-0.168c0.435,0.341,0.51,0.97,0.168,1.404l-1.839,2.34C35.582,19.718,35.289,19.849,34.993,19.849z"
				/>
		</g>
		<g>
			<path d="M39.326,14.333c-0.216,0-0.434-0.069-0.617-0.214c-0.435-0.341-0.51-0.97-0.168-1.404l1.833-2.333
				c0.341-0.434,0.969-0.511,1.404-0.168c0.435,0.341,0.51,0.97,0.168,1.404l-1.833,2.333
				C39.916,14.202,39.623,14.333,39.326,14.333z"/>
		</g>
		<g>
			<path d="M36.491,14.673c-0.216,0-0.434-0.069-0.617-0.214l-2.34-1.838c-0.434-0.341-0.51-0.97-0.169-1.403
				c0.341-0.437,0.97-0.512,1.404-0.169l2.34,1.838c0.434,0.341,0.51,0.97,0.169,1.403C37.081,14.542,36.788,14.673,36.491,14.673z"
				/>
		</g>
		<g>
			<path d="M42,19.001c-0.216,0-0.434-0.069-0.617-0.214l-2.333-1.833c-0.435-0.341-0.51-0.97-0.168-1.404
				c0.341-0.435,0.97-0.512,1.404-0.168l2.333,1.833c0.435,0.341,0.51,0.97,0.168,1.404C42.589,18.87,42.296,19.001,42,19.001z"/>
		</g>
	</g>
	<g>
		<g>
			<path d="M82.383,15.313c-0.542,0-0.988-0.434-1-0.979c-0.011-0.553,0.427-1.01,0.979-1.021l2.975-0.062
				c0.57,0.03,1.009,0.427,1.021,0.979c0.011,0.553-0.427,1.01-0.979,1.021l-2.975,0.062C82.397,15.313,82.39,15.313,82.383,15.313z
				"/>
		</g>
		<g>
			<path d="M89.396,15.165c-0.542,0-0.988-0.434-1-0.979c-0.011-0.553,0.427-1.01,0.979-1.021l2.966-0.062
				c0.53,0.032,1.01,0.427,1.021,0.979c0.011,0.553-0.427,1.01-0.979,1.021l-2.966,0.062C89.41,15.165,89.403,15.165,89.396,15.165z
				"/>
		</g>
		<g>
			<path d="M87.334,13.189c-0.542,0-0.988-0.434-1-0.979l-0.062-2.977c-0.011-0.552,0.427-1.009,0.979-1.021
				c0.562,0.01,1.009,0.427,1.021,0.979l0.062,2.975c0.011,0.553-0.427,1.01-0.979,1.021C87.349,13.189,87.342,13.189,87.334,13.189
				z"/>
		</g>
		<g>
			<path d="M87.482,20.192c-0.542,0-0.988-0.434-1-0.979l-0.062-2.966c-0.011-0.553,0.427-1.01,0.979-1.021
				c0.561,0.034,1.009,0.427,1.021,0.979l0.062,2.966c0.011,0.553-0.427,1.01-0.979,1.021
				C87.497,20.192,87.489,20.192,87.482,20.192z"/>
		</g>
	</g>
	<g>
		<path d="M114,112H15c-0.552,0-1-0.447-1-1s0.448-1,1-1h99c0.552,0,1,0.447,1,1S114.552,112,114,112z"/>
	</g>
</g>
</svg>
